<?xml version="1.0" encoding="UTF-8"?>
<svg width="256px" height="256px" viewBox="0 0 256 256" version="1.1" xmlns="http://www.w3.org/2000/svg" xmlns:xlink="http://www.w3.org/1999/xlink">
    <title>icon-256x256</title>
    <defs>
        <path d="M0,0 L256,0 L256,256 L0,256 L0,0 Z" id="path-1"></path>
    </defs>
    <g id="icon" stroke="none" fill="none" xlink:href="#path-1" fill-rule="evenodd">
        <use fill="#000000" xlink:href="#path-1"></use>
        <g id="Group" stroke-width="1" transform="translate(28, 62)">
            <circle id="Oval-2-Copy-36" fill="#CE4CC7" transform="translate(100, 31.25) scale(-1, 1) translate(-100, -31.25)" cx="100" cy="31.25" r="31.25"></circle>
            <circle id="Oval-2-Copy-32" fill="#CE4CC7" transform="translate(168.75, 100) scale(-1, 1) translate(-168.75, -100)" cx="168.75" cy="100" r="31.25"></circle>
            <circle id="Oval-2-Copy-31" fill="#CE4CC7" transform="translate(100, 100) scale(-1, 1) translate(-100, -100)" cx="100" cy="100" r="31.25"></circle>
            <circle id="Oval-2-Copy-30" fill="#CE4CC7" transform="translate(31.25, 100) scale(-1, 1) translate(-31.25, -100)" cx="31.25" cy="100" r="31.25"></circle>
            <circle id="Oval-2-Copy-14" fill="#E9B8FF" transform="translate(168.75, 31.25) scale(-1, 1) translate(-168.75, -31.25)" cx="168.75" cy="31.25" r="13.125"></circle>
            <circle id="Oval-2-Copy-37" fill="#CE4CC7" transform="translate(168.75, 31.25) scale(-1, 1) translate(-168.75, -31.25)" cx="168.75" cy="31.25" r="31.25"></circle>
            <circle id="Oval-2-Copy-35" fill="#E9B8FF" transform="translate(31.25, 31.25) scale(-1, 1) translate(-31.25, -31.25)" cx="31.25" cy="31.25" r="31.25"></circle>
            <circle id="Oval-2-Copy" fill="#E9B8FF" transform="translate(100, 31.25) scale(-1, 1) translate(-100, -31.25)" cx="100" cy="31.25" r="21.875"></circle>
            <circle id="Oval-2-Copy-14" fill="#E9B8FF" transform="translate(31.5625, 100.3125) scale(-1, 1) translate(-31.5625, -100.3125)" cx="31.5625" cy="100.3125" r="10.9375"></circle>
            <circle id="Oval-2-Copy-20" fill="#E9B8FF" transform="translate(100, 100) scale(-1, 1) translate(-100, -100)" cx="100" cy="100" r="4.375"></circle>
            <circle id="Oval-2-Copy-29" fill="#E9B8FF" transform="translate(168.75, 31.25) scale(-1, 1) translate(-168.75, -31.25)" cx="168.75" cy="31.25" r="17.5"></circle>
        </g>
    </g>
</svg>